# Tiled2Unity generated file. Do not modify by hand.
# Wavefront file for 'Grave_mesh_0003.obj'

# Vertices (Count = 12)
v -80 -64 0
v -96 -64 0
v -96 -48 0
v -80 -48 0
v -64 -64 0
v -80 -64 0
v -80 -48 0
v -64 -48 0
v -64 -80 0
v -80 -80 0
v -80 -64 0
v -64 -64 0

# Texture cooridinates (Count = 8)
vt 0.125 0.3636364
vt 0.25 0.3636364
vt 0.25 0.4090909
vt 0.125 0.4090909
vt 0 0.4090909
vt 0.125 0.4545454
vt 0 0.4545454
vt 0.25 0.4545454

# Normal
vn 0 0 -1

# Mesh description
g Grave_mesh_0003

# Faces
f 1/1/1 2/2/1 3/3/1 4/4/1
f 5/5/1 6/4/1 7/6/1 8/7/1
f 9/4/1 10/3/1 11/8/1 12/6/1

