# Tiled2Unity generated file. Do not modify by hand.
# Wavefront file for 'Grave_mesh_0002.obj'

# Vertices (Count = 104)
v -112 -32 0
v -128 -32 0
v -128 -16 0
v -112 -16 0
v -96 -32 0
v -112 -32 0
v -112 -16 0
v -96 -16 0
v -80 -32 0
v -96 -32 0
v -96 -16 0
v -80 -16 0
v -64 -32 0
v -80 -32 0
v -80 -16 0
v -64 -16 0
v -48 -32 0
v -64 -32 0
v -64 -16 0
v -48 -16 0
v -32 -32 0
v -48 -32 0
v -48 -16 0
v -32 -16 0
v -112 -48 0
v -128 -48 0
v -128 -32 0
v -112 -32 0
v -96 -48 0
v -112 -48 0
v -112 -32 0
v -96 -32 0
v -80 -48 0
v -96 -48 0
v -96 -32 0
v -80 -32 0
v -64 -48 0
v -80 -48 0
v -80 -32 0
v -64 -32 0
v -48 -48 0
v -64 -48 0
v -64 -32 0
v -48 -32 0
v -32 -48 0
v -48 -48 0
v -48 -32 0
v -32 -32 0
v -112 -64 0
v -128 -64 0
v -128 -48 0
v -112 -48 0
v -32 -64 0
v -48 -64 0
v -48 -48 0
v -32 -48 0
v -112 -80 0
v -128 -80 0
v -128 -64 0
v -112 -64 0
v -32 -80 0
v -48 -80 0
v -48 -64 0
v -32 -64 0
v -112 -96 0
v -128 -96 0
v -128 -80 0
v -112 -80 0
v -32 -96 0
v -48 -96 0
v -48 -80 0
v -32 -80 0
v -112 -112 0
v -128 -112 0
v -128 -96 0
v -112 -96 0
v -32 -112 0
v -48 -112 0
v -48 -96 0
v -32 -96 0
v -112 -128 0
v -128 -128 0
v -128 -112 0
v -112 -112 0
v -96 -128 0
v -112 -128 0
v -112 -112 0
v -96 -112 0
v -80 -128 0
v -96 -128 0
v -96 -112 0
v -80 -112 0
v -64 -128 0
v -80 -128 0
v -80 -112 0
v -64 -112 0
v -48 -128 0
v -64 -128 0
v -64 -112 0
v -48 -112 0
v -32 -128 0
v -48 -128 0
v -48 -112 0
v -32 -112 0

# Texture cooridinates (Count = 22)
vt 0.45 0.5098039
vt 0.5 0.5098039
vt 0.5 0.5294118
vt 0.45 0.5294118
vt 0.4 0.5098039
vt 0.4 0.5294118
vt 0.35 0.5098039
vt 0.35 0.5294118
vt 0.35 0.490196
vt 0.4 0.490196
vt 0.55 0.5098039
vt 0.55 0.5294118
vt 0.45 0.4705882
vt 0.5 0.4705882
vt 0.5 0.490196
vt 0.45 0.490196
vt 0.55 0.4705882
vt 0.6 0.4705882
vt 0.6 0.490196
vt 0.55 0.490196
vt 0.35 0.4705882
vt 0.4 0.4705882

# Normal
vn 0 0 -1

# Mesh description
g Grave_mesh_0002

# Faces
f 1/1/1 2/2/1 3/3/1 4/4/1
f 5/5/1 6/1/1 7/4/1 8/6/1
f 9/5/1 10/1/1 11/4/1 12/6/1
f 13/5/1 14/1/1 15/4/1 16/6/1
f 17/5/1 18/1/1 19/4/1 20/6/1
f 21/7/1 22/5/1 23/6/1 24/8/1
f 25/9/1 26/10/1 27/5/1 28/7/1
f 29/2/1 30/11/1 31/12/1 32/3/1
f 33/2/1 34/11/1 35/12/1 36/3/1
f 37/2/1 38/11/1 39/12/1 40/3/1
f 41/2/1 42/11/1 43/12/1 44/3/1
f 45/9/1 46/10/1 47/5/1 48/7/1
f 49/9/1 50/10/1 51/5/1 52/7/1
f 53/9/1 54/10/1 55/5/1 56/7/1
f 57/9/1 58/10/1 59/5/1 60/7/1
f 61/9/1 62/10/1 63/5/1 64/7/1
f 65/9/1 66/10/1 67/5/1 68/7/1
f 69/9/1 70/10/1 71/5/1 72/7/1
f 73/9/1 74/10/1 75/5/1 76/7/1
f 77/9/1 78/10/1 79/5/1 80/7/1
f 81/13/1 82/14/1 83/15/1 84/16/1
f 85/17/1 86/18/1 87/19/1 88/20/1
f 89/17/1 90/18/1 91/19/1 92/20/1
f 93/17/1 94/18/1 95/19/1 96/20/1
f 97/17/1 98/18/1 99/19/1 100/20/1
f 101/21/1 102/22/1 103/10/1 104/9/1

