# Tiled2Unity generated file. Do not modify by hand.
# Wavefront file for 'SmallTown_mesh_0022.obj'

# Vertices (Count = 24)
v -128 -352 0
v -144 -352 0
v -144 -336 0
v -128 -336 0
v -96 -352 0
v -112 -352 0
v -112 -336 0
v -96 -336 0
v -128 -384 0
v -144 -384 0
v -144 -368 0
v -128 -368 0
v -96 -384 0
v -112 -384 0
v -112 -368 0
v -96 -368 0
v -128 -416 0
v -144 -416 0
v -144 -400 0
v -128 -400 0
v -96 -416 0
v -112 -416 0
v -112 -400 0
v -96 -400 0

# Texture cooridinates (Count = 4)
vt 0.375 0.5454545
vt 0.5 0.5454545
vt 0.5 0.5909091
vt 0.375 0.5909091

# Normal
vn 0 0 -1

# Mesh description
g SmallTown_mesh_0022

# Faces
f 1/1/1 2/2/1 3/3/1 4/4/1
f 5/1/1 6/2/1 7/3/1 8/4/1
f 9/1/1 10/2/1 11/3/1 12/4/1
f 13/1/1 14/2/1 15/3/1 16/4/1
f 17/1/1 18/2/1 19/3/1 20/4/1
f 21/1/1 22/2/1 23/3/1 24/4/1

