# Tiled2Unity generated file. Do not modify by hand.
# Wavefront file for 'SmallTown_mesh_0006.obj'

# Vertices (Count = 116)
v -320 -256 0
v -336 -256 0
v -336 -240 0
v -320 -240 0
v -304 -256 0
v -320 -256 0
v -320 -240 0
v -304 -240 0
v -288 -256 0
v -304 -256 0
v -304 -240 0
v -288 -240 0
v -272 -256 0
v -288 -256 0
v -288 -240 0
v -272 -240 0
v -256 -256 0
v -272 -256 0
v -272 -240 0
v -256 -240 0
v -240 -256 0
v -256 -256 0
v -256 -240 0
v -240 -240 0
v -224 -256 0
v -240 -256 0
v -240 -240 0
v -224 -240 0
v -208 -256 0
v -224 -256 0
v -224 -240 0
v -208 -240 0
v -192 -256 0
v -208 -256 0
v -208 -240 0
v -192 -240 0
v -320 -272 0
v -336 -272 0
v -336 -256 0
v -320 -256 0
v -192 -272 0
v -208 -272 0
v -208 -256 0
v -192 -256 0
v -320 -288 0
v -336 -288 0
v -336 -272 0
v -320 -272 0
v -192 -288 0
v -208 -288 0
v -208 -272 0
v -192 -272 0
v -320 -304 0
v -336 -304 0
v -336 -288 0
v -320 -288 0
v -192 -304 0
v -208 -304 0
v -208 -288 0
v -192 -288 0
v -320 -320 0
v -336 -320 0
v -336 -304 0
v -320 -304 0
v -192 -320 0
v -208 -320 0
v -208 -304 0
v -192 -304 0
v -320 -336 0
v -336 -336 0
v -336 -320 0
v -320 -320 0
v -192 -336 0
v -208 -336 0
v -208 -320 0
v -192 -320 0
v -320 -352 0
v -336 -352 0
v -336 -336 0
v -320 -336 0
v -192 -352 0
v -208 -352 0
v -208 -336 0
v -192 -336 0
v -320 -368 0
v -336 -368 0
v -336 -352 0
v -320 -352 0
v -192 -368 0
v -208 -368 0
v -208 -352 0
v -192 -352 0
v -320 -384 0
v -336 -384 0
v -336 -368 0
v -320 -368 0
v -192 -384 0
v -208 -384 0
v -208 -368 0
v -192 -368 0
v -320 -400 0
v -336 -400 0
v -336 -384 0
v -320 -384 0
v -192 -400 0
v -208 -400 0
v -208 -384 0
v -192 -384 0
v -320 -416 0
v -336 -416 0
v -336 -400 0
v -320 -400 0
v -192 -416 0
v -208 -416 0
v -208 -400 0
v -192 -400 0

# Texture cooridinates (Count = 16)
vt 0.25 0.6666666
vt 0.375 0.6666666
vt 0.375 0.75
vt 0.25 0.75
vt 0.125 0.6666666
vt 0.125 0.75
vt 0 0.6666666
vt 0 0.75
vt 0 0.5833334
vt 0.125 0.5833334
vt 0.25 0.5
vt 0.375 0.5
vt 0.375 0.5833334
vt 0.25 0.5833334
vt 0 0.5
vt 0.125 0.5

# Normal
vn 0 0 -1

# Mesh description
g SmallTown_mesh_0006

# Faces
f 1/1/1 2/2/1 3/3/1 4/4/1
f 5/5/1 6/1/1 7/4/1 8/6/1
f 9/5/1 10/1/1 11/4/1 12/6/1
f 13/5/1 14/1/1 15/4/1 16/6/1
f 17/5/1 18/1/1 19/4/1 20/6/1
f 21/5/1 22/1/1 23/4/1 24/6/1
f 25/5/1 26/1/1 27/4/1 28/6/1
f 29/5/1 30/1/1 31/4/1 32/6/1
f 33/7/1 34/5/1 35/6/1 36/8/1
f 37/9/1 38/10/1 39/5/1 40/7/1
f 41/9/1 42/10/1 43/5/1 44/7/1
f 45/9/1 46/10/1 47/5/1 48/7/1
f 49/9/1 50/10/1 51/5/1 52/7/1
f 53/9/1 54/10/1 55/5/1 56/7/1
f 57/9/1 58/10/1 59/5/1 60/7/1
f 61/9/1 62/10/1 63/5/1 64/7/1
f 65/9/1 66/10/1 67/5/1 68/7/1
f 69/9/1 70/10/1 71/5/1 72/7/1
f 73/9/1 74/10/1 75/5/1 76/7/1
f 77/9/1 78/10/1 79/5/1 80/7/1
f 81/9/1 82/10/1 83/5/1 84/7/1
f 85/9/1 86/10/1 87/5/1 88/7/1
f 89/9/1 90/10/1 91/5/1 92/7/1
f 93/9/1 94/10/1 95/5/1 96/7/1
f 97/9/1 98/10/1 99/5/1 100/7/1
f 101/9/1 102/10/1 103/5/1 104/7/1
f 105/9/1 106/10/1 107/5/1 108/7/1
f 109/11/1 110/12/1 111/13/1 112/14/1
f 113/15/1 114/16/1 115/10/1 116/9/1

