# Tiled2Unity generated file. Do not modify by hand.
# Wavefront file for 'SmallTown_mesh_0008.obj'

# Vertices (Count = 552)
v -608 -272 0
v -624 -272 0
v -624 -256 0
v -608 -256 0
v -592 -272 0
v -608 -272 0
v -608 -256 0
v -592 -256 0
v -576 -272 0
v -592 -272 0
v -592 -256 0
v -576 -256 0
v -656 -288 0
v -672 -288 0
v -672 -272 0
v -656 -272 0
v -640 -288 0
v -656 -288 0
v -656 -272 0
v -640 -272 0
v -624 -288 0
v -640 -288 0
v -640 -272 0
v -624 -272 0
v -608 -288 0
v -624 -288 0
v -624 -272 0
v -608 -272 0
v -592 -288 0
v -608 -288 0
v -608 -272 0
v -592 -272 0
v -576 -288 0
v -592 -288 0
v -592 -272 0
v -576 -272 0
v -560 -288 0
v -576 -288 0
v -576 -272 0
v -560 -272 0
v -544 -288 0
v -560 -288 0
v -560 -272 0
v -544 -272 0
v -528 -288 0
v -544 -288 0
v -544 -272 0
v -528 -272 0
v -752 -304 0
v -768 -304 0
v -768 -288 0
v -752 -288 0
v -736 -304 0
v -752 -304 0
v -752 -288 0
v -736 -288 0
v -720 -304 0
v -736 -304 0
v -736 -288 0
v -720 -288 0
v -704 -304 0
v -720 -304 0
v -720 -288 0
v -704 -288 0
v -688 -304 0
v -704 -304 0
v -704 -288 0
v -688 -288 0
v -672 -304 0
v -688 -304 0
v -688 -288 0
v -672 -288 0
v -656 -304 0
v -672 -304 0
v -672 -288 0
v -656 -288 0
v -640 -304 0
v -656 -304 0
v -656 -288 0
v -640 -288 0
v -624 -304 0
v -640 -304 0
v -640 -288 0
v -624 -288 0
v -608 -304 0
v -624 -304 0
v -624 -288 0
v -608 -288 0
v -592 -304 0
v -608 -304 0
v -608 -288 0
v -592 -288 0
v -576 -304 0
v -592 -304 0
v -592 -288 0
v -576 -288 0
v -560 -304 0
v -576 -304 0
v -576 -288 0
v -560 -288 0
v -544 -304 0
v -560 -304 0
v -560 -288 0
v -544 -288 0
v -528 -304 0
v -544 -304 0
v -544 -288 0
v -528 -288 0
v -752 -320 0
v -768 -320 0
v -768 -304 0
v -752 -304 0
v -736 -320 0
v -752 -320 0
v -752 -304 0
v -736 -304 0
v -720 -320 0
v -736 -320 0
v -736 -304 0
v -720 -304 0
v -704 -320 0
v -720 -320 0
v -720 -304 0
v -704 -304 0
v -688 -320 0
v -704 -320 0
v -704 -304 0
v -688 -304 0
v -672 -320 0
v -688 -320 0
v -688 -304 0
v -672 -304 0
v -656 -320 0
v -672 -320 0
v -672 -304 0
v -656 -304 0
v -640 -320 0
v -656 -320 0
v -656 -304 0
v -640 -304 0
v -624 -320 0
v -640 -320 0
v -640 -304 0
v -624 -304 0
v -608 -320 0
v -624 -320 0
v -624 -304 0
v -608 -304 0
v -592 -320 0
v -608 -320 0
v -608 -304 0
v -592 -304 0
v -576 -320 0
v -592 -320 0
v -592 -304 0
v -576 -304 0
v -560 -320 0
v -576 -320 0
v -576 -304 0
v -560 -304 0
v -544 -320 0
v -560 -320 0
v -560 -304 0
v -544 -304 0
v -528 -320 0
v -544 -320 0
v -544 -304 0
v -528 -304 0
v -752 -336 0
v -768 -336 0
v -768 -320 0
v -752 -320 0
v -736 -336 0
v -752 -336 0
v -752 -320 0
v -736 -320 0
v -720 -336 0
v -736 -336 0
v -736 -320 0
v -720 -320 0
v -688 -336 0
v -704 -336 0
v -704 -320 0
v -688 -320 0
v -672 -336 0
v -688 -336 0
v -688 -320 0
v -672 -320 0
v -656 -336 0
v -672 -336 0
v -672 -320 0
v -656 -320 0
v -624 -336 0
v -640 -336 0
v -640 -320 0
v -624 -320 0
v -608 -336 0
v -624 -336 0
v -624 -320 0
v -608 -320 0
v -592 -336 0
v -608 -336 0
v -608 -320 0
v -592 -320 0
v -560 -336 0
v -576 -336 0
v -576 -320 0
v -560 -320 0
v -544 -336 0
v -560 -336 0
v -560 -320 0
v -544 -320 0
v -528 -336 0
v -544 -336 0
v -544 -320 0
v -528 -320 0
v -512 -336 0
v -528 -336 0
v -528 -320 0
v -512 -320 0
v -752 -352 0
v -768 -352 0
v -768 -336 0
v -752 -336 0
v -736 -352 0
v -752 -352 0
v -752 -336 0
v -736 -336 0
v -720 -352 0
v -736 -352 0
v -736 -336 0
v -720 -336 0
v -704 -352 0
v -720 -352 0
v -720 -336 0
v -704 -336 0
v -688 -352 0
v -704 -352 0
v -704 -336 0
v -688 -336 0
v -672 -352 0
v -688 -352 0
v -688 -336 0
v -672 -336 0
v -656 -352 0
v -672 -352 0
v -672 -336 0
v -656 -336 0
v -640 -352 0
v -656 -352 0
v -656 -336 0
v -640 -336 0
v -624 -352 0
v -640 -352 0
v -640 -336 0
v -624 -336 0
v -608 -352 0
v -624 -352 0
v -624 -336 0
v -608 -336 0
v -592 -352 0
v -608 -352 0
v -608 -336 0
v -592 -336 0
v -576 -352 0
v -592 -352 0
v -592 -336 0
v -576 -336 0
v -560 -352 0
v -576 -352 0
v -576 -336 0
v -560 -336 0
v -544 -352 0
v -560 -352 0
v -560 -336 0
v -544 -336 0
v -528 -352 0
v -544 -352 0
v -544 -336 0
v -528 -336 0
v -512 -352 0
v -528 -352 0
v -528 -336 0
v -512 -336 0
v -752 -368 0
v -768 -368 0
v -768 -352 0
v -752 -352 0
v -736 -368 0
v -752 -368 0
v -752 -352 0
v -736 -352 0
v -720 -368 0
v -736 -368 0
v -736 -352 0
v -720 -352 0
v -704 -368 0
v -720 -368 0
v -720 -352 0
v -704 -352 0
v -688 -368 0
v -704 -368 0
v -704 -352 0
v -688 -352 0
v -672 -368 0
v -688 -368 0
v -688 -352 0
v -672 -352 0
v -640 -368 0
v -656 -368 0
v -656 -352 0
v -640 -352 0
v -624 -368 0
v -640 -368 0
v -640 -352 0
v -624 -352 0
v -608 -368 0
v -624 -368 0
v -624 -352 0
v -608 -352 0
v -592 -368 0
v -608 -368 0
v -608 -352 0
v -592 -352 0
v -576 -368 0
v -592 -368 0
v -592 -352 0
v -576 -352 0
v -560 -368 0
v -576 -368 0
v -576 -352 0
v -560 -352 0
v -544 -368 0
v -560 -368 0
v -560 -352 0
v -544 -352 0
v -528 -368 0
v -544 -368 0
v -544 -352 0
v -528 -352 0
v -512 -368 0
v -528 -368 0
v -528 -352 0
v -512 -352 0
v -496 -368 0
v -512 -368 0
v -512 -352 0
v -496 -352 0
v -480 -368 0
v -496 -368 0
v -496 -352 0
v -480 -352 0
v -752 -384 0
v -768 -384 0
v -768 -368 0
v -752 -368 0
v -736 -384 0
v -752 -384 0
v -752 -368 0
v -736 -368 0
v -720 -384 0
v -736 -384 0
v -736 -368 0
v -720 -368 0
v -704 -384 0
v -720 -384 0
v -720 -368 0
v -704 -368 0
v -688 -384 0
v -704 -384 0
v -704 -368 0
v -688 -368 0
v -672 -384 0
v -688 -384 0
v -688 -368 0
v -672 -368 0
v -656 -384 0
v -672 -384 0
v -672 -368 0
v -656 -368 0
v -640 -384 0
v -656 -384 0
v -656 -368 0
v -640 -368 0
v -624 -384 0
v -640 -384 0
v -640 -368 0
v -624 -368 0
v -608 -384 0
v -624 -384 0
v -624 -368 0
v -608 -368 0
v -592 -384 0
v -608 -384 0
v -608 -368 0
v -592 -368 0
v -576 -384 0
v -592 -384 0
v -592 -368 0
v -576 -368 0
v -560 -384 0
v -576 -384 0
v -576 -368 0
v -560 -368 0
v -544 -384 0
v -560 -384 0
v -560 -368 0
v -544 -368 0
v -528 -384 0
v -544 -384 0
v -544 -368 0
v -528 -368 0
v -496 -384 0
v -512 -384 0
v -512 -368 0
v -496 -368 0
v -480 -384 0
v -496 -384 0
v -496 -368 0
v -480 -368 0
v -752 -400 0
v -768 -400 0
v -768 -384 0
v -752 -384 0
v -736 -400 0
v -752 -400 0
v -752 -384 0
v -736 -384 0
v -720 -400 0
v -736 -400 0
v -736 -384 0
v -720 -384 0
v -704 -400 0
v -720 -400 0
v -720 -384 0
v -704 -384 0
v -688 -400 0
v -704 -400 0
v -704 -384 0
v -688 -384 0
v -672 -400 0
v -688 -400 0
v -688 -384 0
v -672 -384 0
v -656 -400 0
v -672 -400 0
v -672 -384 0
v -656 -384 0
v -640 -400 0
v -656 -400 0
v -656 -384 0
v -640 -384 0
v -624 -400 0
v -640 -400 0
v -640 -384 0
v -624 -384 0
v -608 -400 0
v -624 -400 0
v -624 -384 0
v -608 -384 0
v -592 -400 0
v -608 -400 0
v -608 -384 0
v -592 -384 0
v -576 -400 0
v -592 -400 0
v -592 -384 0
v -576 -384 0
v -544 -400 0
v -560 -400 0
v -560 -384 0
v -544 -384 0
v -512 -400 0
v -528 -400 0
v -528 -384 0
v -512 -384 0
v -496 -400 0
v -512 -400 0
v -512 -384 0
v -496 -384 0
v -480 -400 0
v -496 -400 0
v -496 -384 0
v -480 -384 0
v -592 -416 0
v -608 -416 0
v -608 -400 0
v -592 -400 0
v -576 -416 0
v -592 -416 0
v -592 -400 0
v -576 -400 0
v -560 -416 0
v -576 -416 0
v -576 -400 0
v -560 -400 0
v -544 -416 0
v -560 -416 0
v -560 -400 0
v -544 -400 0
v -528 -416 0
v -544 -416 0
v -544 -400 0
v -528 -400 0
v -512 -416 0
v -528 -416 0
v -528 -400 0
v -512 -400 0
v -496 -416 0
v -512 -416 0
v -512 -400 0
v -496 -400 0
v -544 -432 0
v -560 -432 0
v -560 -416 0
v -544 -416 0
v -512 -432 0
v -528 -432 0
v -528 -416 0
v -512 -416 0
v -496 -432 0
v -512 -432 0
v -512 -416 0
v -496 -416 0
v -544 -448 0
v -560 -448 0
v -560 -432 0
v -544 -432 0
v -528 -448 0
v -544 -448 0
v -544 -432 0
v -528 -432 0
v -512 -448 0
v -528 -448 0
v -528 -432 0
v -512 -432 0
v -496 -448 0
v -512 -448 0
v -512 -432 0
v -496 -432 0
v -544 -464 0
v -560 -464 0
v -560 -448 0
v -544 -448 0
v -528 -464 0
v -544 -464 0
v -544 -448 0
v -528 -448 0
v -512 -464 0
v -528 -464 0
v -528 -448 0
v -512 -448 0

# Texture cooridinates (Count = 20)
vt 0.25 0.8888889
vt 0.3333333 0.8888889
vt 0.3333333 0.9166667
vt 0.25 0.9166667
vt 0.25 0.4722222
vt 0.3333333 0.4722222
vt 0.3333333 0.5
vt 0.25 0.5
vt 0.25 0.6388889
vt 0.3333333 0.6388889
vt 0.3333333 0.6666666
vt 0.25 0.6666666
vt 0.25 0.8055556
vt 0.3333333 0.8055556
vt 0.3333333 0.8333333
vt 0.25 0.8333333
vt 0.25 0.5555556
vt 0.3333333 0.5555556
vt 0.3333333 0.5833334
vt 0.25 0.5833334

# Normal
vn 0 0 -1

# Mesh description
g SmallTown_mesh_0008

# Faces
f 1/1/1 2/2/1 3/3/1 4/4/1
f 5/1/1 6/2/1 7/3/1 8/4/1
f 9/1/1 10/2/1 11/3/1 12/4/1
f 13/1/1 14/2/1 15/3/1 16/4/1
f 17/1/1 18/2/1 19/3/1 20/4/1
f 21/1/1 22/2/1 23/3/1 24/4/1
f 25/1/1 26/2/1 27/3/1 28/4/1
f 29/5/1 30/6/1 31/7/1 32/8/1
f 33/1/1 34/2/1 35/3/1 36/4/1
f 37/1/1 38/2/1 39/3/1 40/4/1
f 41/1/1 42/2/1 43/3/1 44/4/1
f 45/9/1 46/10/1 47/11/1 48/12/1
f 49/1/1 50/2/1 51/3/1 52/4/1
f 53/1/1 54/2/1 55/3/1 56/4/1
f 57/1/1 58/2/1 59/3/1 60/4/1
f 61/9/1 62/10/1 63/11/1 64/12/1
f 65/1/1 66/2/1 67/3/1 68/4/1
f 69/1/1 70/2/1 71/3/1 72/4/1
f 73/1/1 74/2/1 75/3/1 76/4/1
f 77/13/1 78/14/1 79/15/1 80/16/1
f 81/13/1 82/14/1 83/15/1 84/16/1
f 85/1/1 86/2/1 87/3/1 88/4/1
f 89/1/1 90/2/1 91/3/1 92/4/1
f 93/1/1 94/2/1 95/3/1 96/4/1
f 97/5/1 98/6/1 99/7/1 100/8/1
f 101/1/1 102/2/1 103/3/1 104/4/1
f 105/1/1 106/2/1 107/3/1 108/4/1
f 109/1/1 110/2/1 111/3/1 112/4/1
f 113/13/1 114/14/1 115/15/1 116/16/1
f 117/1/1 118/2/1 119/3/1 120/4/1
f 121/1/1 122/2/1 123/3/1 124/4/1
f 125/1/1 126/2/1 127/3/1 128/4/1
f 129/9/1 130/10/1 131/11/1 132/12/1
f 133/1/1 134/2/1 135/3/1 136/4/1
f 137/1/1 138/2/1 139/3/1 140/4/1
f 141/1/1 142/2/1 143/3/1 144/4/1
f 145/1/1 146/2/1 147/3/1 148/4/1
f 149/1/1 150/2/1 151/3/1 152/4/1
f 153/1/1 154/2/1 155/3/1 156/4/1
f 157/13/1 158/14/1 159/15/1 160/16/1
f 161/1/1 162/2/1 163/3/1 164/4/1
f 165/1/1 166/2/1 167/3/1 168/4/1
f 169/1/1 170/2/1 171/3/1 172/4/1
f 173/1/1 174/2/1 175/3/1 176/4/1
f 177/1/1 178/2/1 179/3/1 180/4/1
f 181/1/1 182/2/1 183/3/1 184/4/1
f 185/17/1 186/18/1 187/19/1 188/20/1
f 189/1/1 190/2/1 191/3/1 192/4/1
f 193/1/1 194/2/1 195/3/1 196/4/1
f 197/1/1 198/2/1 199/3/1 200/4/1
f 201/1/1 202/2/1 203/3/1 204/4/1
f 205/1/1 206/2/1 207/3/1 208/4/1
f 209/5/1 210/6/1 211/7/1 212/8/1
f 213/13/1 214/14/1 215/15/1 216/16/1
f 217/1/1 218/2/1 219/3/1 220/4/1
f 221/1/1 222/2/1 223/3/1 224/4/1
f 225/1/1 226/2/1 227/3/1 228/4/1
f 229/1/1 230/2/1 231/3/1 232/4/1
f 233/1/1 234/2/1 235/3/1 236/4/1
f 237/1/1 238/2/1 239/3/1 240/4/1
f 241/1/1 242/2/1 243/3/1 244/4/1
f 245/1/1 246/2/1 247/3/1 248/4/1
f 249/1/1 250/2/1 251/3/1 252/4/1
f 253/1/1 254/2/1 255/3/1 256/4/1
f 257/5/1 258/6/1 259/7/1 260/8/1
f 261/1/1 262/2/1 263/3/1 264/4/1
f 265/1/1 266/2/1 267/3/1 268/4/1
f 269/1/1 270/2/1 271/3/1 272/4/1
f 273/1/1 274/2/1 275/3/1 276/4/1
f 277/1/1 278/2/1 279/3/1 280/4/1
f 281/1/1 282/2/1 283/3/1 284/4/1
f 285/5/1 286/6/1 287/7/1 288/8/1
f 289/1/1 290/2/1 291/3/1 292/4/1
f 293/1/1 294/2/1 295/3/1 296/4/1
f 297/1/1 298/2/1 299/3/1 300/4/1
f 301/1/1 302/2/1 303/3/1 304/4/1
f 305/1/1 306/2/1 307/3/1 308/4/1
f 309/1/1 310/2/1 311/3/1 312/4/1
f 313/13/1 314/14/1 315/15/1 316/16/1
f 317/1/1 318/2/1 319/3/1 320/4/1
f 321/1/1 322/2/1 323/3/1 324/4/1
f 325/1/1 326/2/1 327/3/1 328/4/1
f 329/17/1 330/18/1 331/19/1 332/20/1
f 333/1/1 334/2/1 335/3/1 336/4/1
f 337/5/1 338/6/1 339/7/1 340/8/1
f 341/1/1 342/2/1 343/3/1 344/4/1
f 345/1/1 346/2/1 347/3/1 348/4/1
f 349/1/1 350/2/1 351/3/1 352/4/1
f 353/1/1 354/2/1 355/3/1 356/4/1
f 357/9/1 358/10/1 359/11/1 360/12/1
f 361/1/1 362/2/1 363/3/1 364/4/1
f 365/17/1 366/18/1 367/19/1 368/20/1
f 369/1/1 370/2/1 371/3/1 372/4/1
f 373/1/1 374/2/1 375/3/1 376/4/1
f 377/13/1 378/14/1 379/15/1 380/16/1
f 381/1/1 382/2/1 383/3/1 384/4/1
f 385/1/1 386/2/1 387/3/1 388/4/1
f 389/1/1 390/2/1 391/3/1 392/4/1
f 393/1/1 394/2/1 395/3/1 396/4/1
f 397/9/1 398/10/1 399/11/1 400/12/1
f 401/1/1 402/2/1 403/3/1 404/4/1
f 405/1/1 406/2/1 407/3/1 408/4/1
f 409/1/1 410/2/1 411/3/1 412/4/1
f 413/1/1 414/2/1 415/3/1 416/4/1
f 417/1/1 418/2/1 419/3/1 420/4/1
f 421/1/1 422/2/1 423/3/1 424/4/1
f 425/1/1 426/2/1 427/3/1 428/4/1
f 429/13/1 430/14/1 431/15/1 432/16/1
f 433/1/1 434/2/1 435/3/1 436/4/1
f 437/1/1 438/2/1 439/3/1 440/4/1
f 441/1/1 442/2/1 443/3/1 444/4/1
f 445/1/1 446/2/1 447/3/1 448/4/1
f 449/1/1 450/2/1 451/3/1 452/4/1
f 453/1/1 454/2/1 455/3/1 456/4/1
f 457/17/1 458/18/1 459/19/1 460/20/1
f 461/1/1 462/2/1 463/3/1 464/4/1
f 465/1/1 466/2/1 467/3/1 468/4/1
f 469/1/1 470/2/1 471/3/1 472/4/1
f 473/1/1 474/2/1 475/3/1 476/4/1
f 477/1/1 478/2/1 479/3/1 480/4/1
f 481/1/1 482/2/1 483/3/1 484/4/1
f 485/1/1 486/2/1 487/3/1 488/4/1
f 489/17/1 490/18/1 491/19/1 492/20/1
f 493/1/1 494/2/1 495/3/1 496/4/1
f 497/1/1 498/2/1 499/3/1 500/4/1
f 501/1/1 502/2/1 503/3/1 504/4/1
f 505/1/1 506/2/1 507/3/1 508/4/1
f 509/13/1 510/14/1 511/15/1 512/16/1
f 513/1/1 514/2/1 515/3/1 516/4/1
f 517/1/1 518/2/1 519/3/1 520/4/1
f 521/1/1 522/2/1 523/3/1 524/4/1
f 525/1/1 526/2/1 527/3/1 528/4/1
f 529/1/1 530/2/1 531/3/1 532/4/1
f 533/9/1 534/10/1 535/11/1 536/12/1
f 537/1/1 538/2/1 539/3/1 540/4/1
f 541/1/1 542/2/1 543/3/1 544/4/1
f 545/9/1 546/10/1 547/11/1 548/12/1
f 549/1/1 550/2/1 551/3/1 552/4/1

