# Tiled2Unity generated file. Do not modify by hand.
# Wavefront file for 'SmallTown_mesh_0016.obj'

# Vertices (Count = 304)
v -176 -256 0
v -192 -256 0
v -192 -240 0
v -176 -240 0
v -160 -256 0
v -176 -256 0
v -176 -240 0
v -160 -240 0
v -144 -256 0
v -160 -256 0
v -160 -240 0
v -144 -240 0
v -112 -256 0
v -128 -256 0
v -128 -240 0
v -112 -240 0
v -96 -256 0
v -112 -256 0
v -112 -240 0
v -96 -240 0
v -80 -256 0
v -96 -256 0
v -96 -240 0
v -80 -240 0
v -64 -256 0
v -80 -256 0
v -80 -240 0
v -64 -240 0
v -48 -256 0
v -64 -256 0
v -64 -240 0
v -48 -240 0
v -32 -272 0
v -48 -272 0
v -48 -256 0
v -32 -256 0
v -32 -304 0
v -48 -304 0
v -48 -288 0
v -32 -288 0
v -32 -320 0
v -48 -320 0
v -48 -304 0
v -32 -304 0
v -32 -336 0
v -48 -336 0
v -48 -320 0
v -32 -320 0
v -32 -352 0
v -48 -352 0
v -48 -336 0
v -32 -336 0
v -32 -368 0
v -48 -368 0
v -48 -352 0
v -32 -352 0
v -32 -384 0
v -48 -384 0
v -48 -368 0
v -32 -368 0
v -32 -400 0
v -48 -400 0
v -48 -384 0
v -32 -384 0
v -32 -416 0
v -48 -416 0
v -48 -400 0
v -32 -400 0
v -32 -432 0
v -48 -432 0
v -48 -416 0
v -32 -416 0
v -64 -496 0
v -80 -496 0
v -80 -480 0
v -64 -480 0
v -48 -496 0
v -64 -496 0
v -64 -480 0
v -48 -480 0
v -32 -496 0
v -48 -496 0
v -48 -480 0
v -32 -480 0
v -80 -512 0
v -96 -512 0
v -96 -496 0
v -80 -496 0
v -64 -512 0
v -80 -512 0
v -80 -496 0
v -64 -496 0
v -48 -512 0
v -64 -512 0
v -64 -496 0
v -48 -496 0
v -32 -512 0
v -48 -512 0
v -48 -496 0
v -32 -496 0
v -80 -528 0
v -96 -528 0
v -96 -512 0
v -80 -512 0
v -64 -528 0
v -80 -528 0
v -80 -512 0
v -64 -512 0
v -48 -528 0
v -64 -528 0
v -64 -512 0
v -48 -512 0
v -32 -528 0
v -48 -528 0
v -48 -512 0
v -32 -512 0
v -80 -544 0
v -96 -544 0
v -96 -528 0
v -80 -528 0
v -64 -544 0
v -80 -544 0
v -80 -528 0
v -64 -528 0
v -48 -544 0
v -64 -544 0
v -64 -528 0
v -48 -528 0
v -32 -544 0
v -48 -544 0
v -48 -528 0
v -32 -528 0
v -80 -560 0
v -96 -560 0
v -96 -544 0
v -80 -544 0
v -64 -560 0
v -80 -560 0
v -80 -544 0
v -64 -544 0
v -48 -560 0
v -64 -560 0
v -64 -544 0
v -48 -544 0
v -32 -560 0
v -48 -560 0
v -48 -544 0
v -32 -544 0
v -80 -576 0
v -96 -576 0
v -96 -560 0
v -80 -560 0
v -64 -576 0
v -80 -576 0
v -80 -560 0
v -64 -560 0
v -48 -576 0
v -64 -576 0
v -64 -560 0
v -48 -560 0
v -32 -576 0
v -48 -576 0
v -48 -560 0
v -32 -560 0
v -224 -592 0
v -240 -592 0
v -240 -576 0
v -224 -576 0
v -208 -592 0
v -224 -592 0
v -224 -576 0
v -208 -576 0
v -192 -592 0
v -208 -592 0
v -208 -576 0
v -192 -576 0
v -176 -592 0
v -192 -592 0
v -192 -576 0
v -176 -576 0
v -160 -592 0
v -176 -592 0
v -176 -576 0
v -160 -576 0
v -144 -592 0
v -160 -592 0
v -160 -576 0
v -144 -576 0
v -128 -592 0
v -144 -592 0
v -144 -576 0
v -128 -576 0
v -112 -592 0
v -128 -592 0
v -128 -576 0
v -112 -576 0
v -80 -592 0
v -96 -592 0
v -96 -576 0
v -80 -576 0
v -64 -592 0
v -80 -592 0
v -80 -576 0
v -64 -576 0
v -48 -592 0
v -64 -592 0
v -64 -576 0
v -48 -576 0
v -32 -592 0
v -48 -592 0
v -48 -576 0
v -32 -576 0
v -224 -608 0
v -240 -608 0
v -240 -592 0
v -224 -592 0
v -208 -608 0
v -224 -608 0
v -224 -592 0
v -208 -592 0
v -192 -608 0
v -208 -608 0
v -208 -592 0
v -192 -592 0
v -176 -608 0
v -192 -608 0
v -192 -592 0
v -176 -592 0
v -160 -608 0
v -176 -608 0
v -176 -592 0
v -160 -592 0
v -144 -608 0
v -160 -608 0
v -160 -592 0
v -144 -592 0
v -128 -608 0
v -144 -608 0
v -144 -592 0
v -128 -592 0
v -112 -608 0
v -128 -608 0
v -128 -592 0
v -112 -592 0
v -80 -608 0
v -96 -608 0
v -96 -592 0
v -80 -592 0
v -64 -608 0
v -80 -608 0
v -80 -592 0
v -64 -592 0
v -48 -608 0
v -64 -608 0
v -64 -592 0
v -48 -592 0
v -32 -608 0
v -48 -608 0
v -48 -592 0
v -32 -592 0
v -224 -624 0
v -240 -624 0
v -240 -608 0
v -224 -608 0
v -208 -624 0
v -224 -624 0
v -224 -608 0
v -208 -608 0
v -192 -624 0
v -208 -624 0
v -208 -608 0
v -192 -608 0
v -176 -624 0
v -192 -624 0
v -192 -608 0
v -176 -608 0
v -160 -624 0
v -176 -624 0
v -176 -608 0
v -160 -608 0
v -144 -624 0
v -160 -624 0
v -160 -608 0
v -144 -608 0
v -128 -624 0
v -144 -624 0
v -144 -608 0
v -128 -608 0
v -112 -624 0
v -128 -624 0
v -128 -608 0
v -112 -608 0
v -64 -624 0
v -80 -624 0
v -80 -608 0
v -64 -608 0
v -48 -624 0
v -64 -624 0
v -64 -608 0
v -48 -608 0
v -32 -624 0
v -48 -624 0
v -48 -608 0
v -32 -608 0

# Texture cooridinates (Count = 26)
vt 0.25 0.8888889
vt 0.3333333 0.8888889
vt 0.3333333 0.9166667
vt 0.25 0.9166667
vt 0.25 0.8055556
vt 0.3333333 0.8055556
vt 0.3333333 0.8333333
vt 0.25 0.8333333
vt 0.25 0.5555556
vt 0.3333333 0.5555556
vt 0.3333333 0.5833334
vt 0.25 0.5833334
vt 0.75 0.8888889
vt 0.8333333 0.8888889
vt 0.8333333 0.9166667
vt 0.75 0.9166667
vt 0.3333333 0.6111111
vt 0.25 0.6111111
vt 0.25 0.6388889
vt 0.3333333 0.6388889
vt 0.3333333 0.6666666
vt 0.25 0.6666666
vt 0 0.8333333
vt 0.08333334 0.8333333
vt 0.08333334 0.8611111
vt 0 0.8611111

# Normal
vn 0 0 -1

# Mesh description
g SmallTown_mesh_0016

# Faces
f 1/1/1 2/2/1 3/3/1 4/4/1
f 5/1/1 6/2/1 7/3/1 8/4/1
f 9/1/1 10/2/1 11/3/1 12/4/1
f 13/5/1 14/6/1 15/7/1 16/8/1
f 17/9/1 18/10/1 19/11/1 20/12/1
f 21/5/1 22/6/1 23/7/1 24/8/1
f 25/9/1 26/10/1 27/11/1 28/12/1
f 29/9/1 30/10/1 31/11/1 32/12/1
f 33/5/1 34/6/1 35/7/1 36/8/1
f 37/5/1 38/6/1 39/7/1 40/8/1
f 41/5/1 42/6/1 43/7/1 44/8/1
f 45/9/1 46/10/1 47/11/1 48/12/1
f 49/9/1 50/10/1 51/11/1 52/12/1
f 53/5/1 54/6/1 55/7/1 56/8/1
f 57/5/1 58/6/1 59/7/1 60/8/1
f 61/9/1 62/10/1 63/11/1 64/12/1
f 65/1/1 66/2/1 67/3/1 68/4/1
f 69/1/1 70/2/1 71/3/1 72/4/1
f 73/1/1 74/2/1 75/3/1 76/4/1
f 77/1/1 78/2/1 79/3/1 80/4/1
f 81/1/1 82/2/1 83/3/1 84/4/1
f 85/1/1 86/2/1 87/3/1 88/4/1
f 89/1/1 90/2/1 91/3/1 92/4/1
f 93/1/1 94/2/1 95/3/1 96/4/1
f 97/1/1 98/2/1 99/3/1 100/4/1
f 101/1/1 102/2/1 103/3/1 104/4/1
f 105/1/1 106/2/1 107/3/1 108/4/1
f 109/5/1 110/6/1 111/7/1 112/8/1
f 113/1/1 114/2/1 115/3/1 116/4/1
f 117/1/1 118/2/1 119/3/1 120/4/1
f 121/5/1 122/6/1 123/7/1 124/8/1
f 125/1/1 126/2/1 127/3/1 128/4/1
f 129/1/1 130/2/1 131/3/1 132/4/1
f 133/1/1 134/2/1 135/3/1 136/4/1
f 137/1/1 138/2/1 139/3/1 140/4/1
f 141/13/1 142/14/1 143/15/1 144/16/1
f 145/1/1 146/2/1 147/3/1 148/4/1
f 149/1/1 150/2/1 151/3/1 152/4/1
f 153/12/1 154/11/1 155/17/1 156/18/1
f 157/5/1 158/6/1 159/7/1 160/8/1
f 161/1/1 162/2/1 163/3/1 164/4/1
f 165/1/1 166/2/1 167/3/1 168/4/1
f 169/1/1 170/2/1 171/3/1 172/4/1
f 173/1/1 174/2/1 175/3/1 176/4/1
f 177/1/1 178/2/1 179/3/1 180/4/1
f 181/1/1 182/2/1 183/3/1 184/4/1
f 185/1/1 186/2/1 187/3/1 188/4/1
f 189/1/1 190/2/1 191/3/1 192/4/1
f 193/1/1 194/2/1 195/3/1 196/4/1
f 197/1/1 198/2/1 199/3/1 200/4/1
f 201/9/1 202/10/1 203/11/1 204/12/1
f 205/1/1 206/2/1 207/3/1 208/4/1
f 209/1/1 210/2/1 211/3/1 212/4/1
f 213/1/1 214/2/1 215/3/1 216/4/1
f 217/1/1 218/2/1 219/3/1 220/4/1
f 221/19/1 222/20/1 223/21/1 224/22/1
f 225/1/1 226/2/1 227/3/1 228/4/1
f 229/5/1 230/6/1 231/7/1 232/8/1
f 233/1/1 234/2/1 235/3/1 236/4/1
f 237/19/1 238/20/1 239/21/1 240/22/1
f 241/1/1 242/2/1 243/3/1 244/4/1
f 245/1/1 246/2/1 247/3/1 248/4/1
f 249/1/1 250/2/1 251/3/1 252/4/1
f 253/1/1 254/2/1 255/3/1 256/4/1
f 257/5/1 258/6/1 259/7/1 260/8/1
f 261/1/1 262/2/1 263/3/1 264/4/1
f 265/5/1 266/6/1 267/7/1 268/8/1
f 269/1/1 270/2/1 271/3/1 272/4/1
f 273/1/1 274/2/1 275/3/1 276/4/1
f 277/19/1 278/20/1 279/21/1 280/22/1
f 281/1/1 282/2/1 283/3/1 284/4/1
f 285/5/1 286/6/1 287/7/1 288/8/1
f 289/1/1 290/2/1 291/3/1 292/4/1
f 293/1/1 294/2/1 295/3/1 296/4/1
f 297/1/1 298/2/1 299/3/1 300/4/1
f 301/23/1 302/24/1 303/25/1 304/26/1

