# Tiled2Unity generated file. Do not modify by hand.
# Wavefront file for 'SmallTown_mesh_0018.obj'

# Vertices (Count = 32)
v -224 -368 0
v -240 -368 0
v -240 -352 0
v -224 -352 0
v -336 -704 0
v -352 -704 0
v -352 -688 0
v -336 -688 0
v -320 -704 0
v -336 -704 0
v -336 -688 0
v -320 -688 0
v -304 -704 0
v -320 -704 0
v -320 -688 0
v -304 -688 0
v -288 -704 0
v -304 -704 0
v -304 -688 0
v -288 -688 0
v -272 -704 0
v -288 -704 0
v -288 -688 0
v -272 -688 0
v -256 -704 0
v -272 -704 0
v -272 -688 0
v -256 -688 0
v -240 -704 0
v -256 -704 0
v -256 -688 0
v -240 -688 0

# Texture cooridinates (Count = 10)
vt 0.3809524 0.7948718
vt 0.4285714 0.7948718
vt 0.4285714 0.8205128
vt 0.3809524 0.8205128
vt 0.2380952 0.4871795
vt 0.2857143 0.4871795
vt 0.2857143 0.5128205
vt 0.2380952 0.5128205
vt 0.1904762 0.4871795
vt 0.1904762 0.5128205

# Normal
vn 0 0 -1

# Mesh description
g SmallTown_mesh_0018

# Faces
f 1/1/1 2/2/1 3/3/1 4/4/1
f 5/5/1 6/6/1 7/7/1 8/8/1
f 9/5/1 10/6/1 11/7/1 12/8/1
f 13/5/1 14/6/1 15/7/1 16/8/1
f 17/5/1 18/6/1 19/7/1 20/8/1
f 21/5/1 22/6/1 23/7/1 24/8/1
f 25/5/1 26/6/1 27/7/1 28/8/1
f 29/9/1 30/5/1 31/8/1 32/10/1

