# Tiled2Unity generated file. Do not modify by hand.
# Wavefront file for 'SmallTown_mesh_0009.obj'

# Vertices (Count = 228)
v -128 -288 0
v -144 -288 0
v -144 -272 0
v -128 -272 0
v -96 -288 0
v -112 -288 0
v -112 -272 0
v -96 -272 0
v -32 -448 0
v -48 -448 0
v -48 -432 0
v -32 -432 0
v -736 -464 0
v -752 -464 0
v -752 -448 0
v -736 -448 0
v -720 -464 0
v -736 -464 0
v -736 -448 0
v -720 -448 0
v -704 -464 0
v -720 -464 0
v -720 -448 0
v -704 -448 0
v -688 -464 0
v -704 -464 0
v -704 -448 0
v -688 -448 0
v -672 -464 0
v -688 -464 0
v -688 -448 0
v -672 -448 0
v -656 -464 0
v -672 -464 0
v -672 -448 0
v -656 -448 0
v -160 -656 0
v -176 -656 0
v -176 -640 0
v -160 -640 0
v -144 -656 0
v -160 -656 0
v -160 -640 0
v -144 -640 0
v -128 -656 0
v -144 -656 0
v -144 -640 0
v -128 -640 0
v -80 -656 0
v -96 -656 0
v -96 -640 0
v -80 -640 0
v -64 -656 0
v -80 -656 0
v -80 -640 0
v -64 -640 0
v -48 -656 0
v -64 -656 0
v -64 -640 0
v -48 -640 0
v -736 -672 0
v -752 -672 0
v -752 -656 0
v -736 -656 0
v -720 -672 0
v -736 -672 0
v -736 -656 0
v -720 -656 0
v -704 -672 0
v -720 -672 0
v -720 -656 0
v -704 -656 0
v -688 -672 0
v -704 -672 0
v -704 -656 0
v -688 -656 0
v -656 -672 0
v -672 -672 0
v -672 -656 0
v -656 -656 0
v -640 -672 0
v -656 -672 0
v -656 -656 0
v -640 -656 0
v -624 -672 0
v -640 -672 0
v -640 -656 0
v -624 -656 0
v -608 -672 0
v -624 -672 0
v -624 -656 0
v -608 -656 0
v -592 -672 0
v -608 -672 0
v -608 -656 0
v -592 -656 0
v -576 -672 0
v -592 -672 0
v -592 -656 0
v -576 -656 0
v -560 -672 0
v -576 -672 0
v -576 -656 0
v -560 -656 0
v -544 -672 0
v -560 -672 0
v -560 -656 0
v -544 -656 0
v -528 -672 0
v -544 -672 0
v -544 -656 0
v -528 -656 0
v -512 -672 0
v -528 -672 0
v -528 -656 0
v -512 -656 0
v -688 -688 0
v -704 -688 0
v -704 -672 0
v -688 -672 0
v -688 -704 0
v -704 -704 0
v -704 -688 0
v -688 -688 0
v -656 -704 0
v -672 -704 0
v -672 -688 0
v -656 -688 0
v -640 -704 0
v -656 -704 0
v -656 -688 0
v -640 -688 0
v -624 -704 0
v -640 -704 0
v -640 -688 0
v -624 -688 0
v -608 -704 0
v -624 -704 0
v -624 -688 0
v -608 -688 0
v -592 -704 0
v -608 -704 0
v -608 -688 0
v -592 -688 0
v -576 -704 0
v -592 -704 0
v -592 -688 0
v -576 -688 0
v -560 -704 0
v -576 -704 0
v -576 -688 0
v -560 -688 0
v -544 -704 0
v -560 -704 0
v -560 -688 0
v -544 -688 0
v -528 -704 0
v -544 -704 0
v -544 -688 0
v -528 -688 0
v -512 -704 0
v -528 -704 0
v -528 -688 0
v -512 -688 0
v -736 -720 0
v -752 -720 0
v -752 -704 0
v -736 -704 0
v -720 -720 0
v -736 -720 0
v -736 -704 0
v -720 -704 0
v -688 -720 0
v -704 -720 0
v -704 -704 0
v -688 -704 0
v -96 -720 0
v -112 -720 0
v -112 -704 0
v -96 -704 0
v -80 -720 0
v -96 -720 0
v -96 -704 0
v -80 -704 0
v -64 -720 0
v -80 -720 0
v -80 -704 0
v -64 -704 0
v -656 -736 0
v -672 -736 0
v -672 -720 0
v -656 -720 0
v -640 -736 0
v -656 -736 0
v -656 -720 0
v -640 -720 0
v -624 -736 0
v -640 -736 0
v -640 -720 0
v -624 -720 0
v -608 -736 0
v -624 -736 0
v -624 -720 0
v -608 -720 0
v -592 -736 0
v -608 -736 0
v -608 -720 0
v -592 -720 0
v -576 -736 0
v -592 -736 0
v -592 -720 0
v -576 -720 0
v -560 -736 0
v -576 -736 0
v -576 -720 0
v -560 -720 0
v -544 -736 0
v -560 -736 0
v -560 -720 0
v -544 -720 0
v -528 -736 0
v -544 -736 0
v -544 -720 0
v -528 -720 0
v -512 -736 0
v -528 -736 0
v -528 -720 0
v -512 -720 0

# Texture cooridinates (Count = 39)
vt 0.375 0.5
vt 0.5 0.5
vt 0.5 0.5454545
vt 0.375 0.5454545
vt 0.75 0.7272727
vt 0.875 0.7272727
vt 0.875 0.7727273
vt 0.75 0.7727273
vt 0.25 0.5
vt 0.25 0.5454545
vt 0.125 0.5
vt 0.125 0.5454545
vt 0 0.5
vt 0 0.5454545
vt 0.875 0.8181818
vt 0.75 0.8181818
vt 0.625 0.7727273
vt 0.625 0.8181818
vt 0.125 0.7727273
vt 0.25 0.7727273
vt 0.25 0.8181818
vt 0.125 0.8181818
vt 0.75 0.4545454
vt 0.875 0.4545454
vt 0.875 0.5
vt 0.75 0.5
vt 0.5 0.6363636
vt 0.625 0.6363636
vt 0.625 0.6818182
vt 0.5 0.6818182
vt 0.375 0.5909091
vt 0.25 0.5909091
vt 0.625 0.5
vt 0.625 0.5454545
vt 0.75 0.5454545
vt 0.75 0.6363636
vt 0.75 0.6818182
vt 0.375 0.6363636
vt 0.375 0.6818182

# Normal
vn 0 0 -1

# Mesh description
g SmallTown_mesh_0009

# Faces
f 1/1/1 2/2/1 3/3/1 4/4/1
f 5/1/1 6/2/1 7/3/1 8/4/1
f 9/5/1 10/6/1 11/7/1 12/8/1
f 13/9/1 14/1/1 15/4/1 16/10/1
f 17/11/1 18/9/1 19/10/1 20/12/1
f 21/11/1 22/9/1 23/10/1 24/12/1
f 25/11/1 26/9/1 27/10/1 28/12/1
f 29/11/1 30/9/1 31/10/1 32/12/1
f 33/13/1 34/11/1 35/12/1 36/14/1
f 37/8/1 38/7/1 39/15/1 40/16/1
f 41/17/1 42/8/1 43/16/1 44/18/1
f 45/19/1 46/20/1 47/21/1 48/22/1
f 49/23/1 50/24/1 51/25/1 52/26/1
f 53/23/1 54/24/1 55/25/1 56/26/1
f 57/23/1 58/24/1 59/25/1 60/26/1
f 61/9/1 62/1/1 63/4/1 64/10/1
f 65/11/1 66/9/1 67/10/1 68/12/1
f 69/13/1 70/11/1 71/12/1 72/14/1
f 73/1/1 74/2/1 75/3/1 76/4/1
f 77/27/1 78/28/1 79/29/1 80/30/1
f 81/10/1 82/4/1 83/31/1 84/32/1
f 85/27/1 86/28/1 87/29/1 88/30/1
f 89/10/1 90/4/1 91/31/1 92/32/1
f 93/27/1 94/28/1 95/29/1 96/30/1
f 97/10/1 98/4/1 99/31/1 100/32/1
f 101/27/1 102/28/1 103/29/1 104/30/1
f 105/10/1 106/4/1 107/31/1 108/32/1
f 109/27/1 110/28/1 111/29/1 112/30/1
f 113/10/1 114/4/1 115/31/1 116/32/1
f 117/2/1 118/33/1 119/34/1 120/3/1
f 121/2/1 122/33/1 123/34/1 124/3/1
f 125/27/1 126/28/1 127/29/1 128/30/1
f 129/10/1 130/4/1 131/31/1 132/32/1
f 133/27/1 134/28/1 135/29/1 136/30/1
f 137/10/1 138/4/1 139/31/1 140/32/1
f 141/27/1 142/28/1 143/29/1 144/30/1
f 145/10/1 146/4/1 147/31/1 148/32/1
f 149/27/1 150/28/1 151/29/1 152/30/1
f 153/10/1 154/4/1 155/31/1 156/32/1
f 157/27/1 158/28/1 159/29/1 160/30/1
f 161/10/1 162/4/1 163/31/1 164/32/1
f 165/9/1 166/1/1 167/4/1 168/10/1
f 169/13/1 170/11/1 171/12/1 172/14/1
f 173/33/1 174/26/1 175/35/1 176/34/1
f 177/28/1 178/36/1 179/37/1 180/29/1
f 181/27/1 182/28/1 183/29/1 184/30/1
f 185/38/1 186/27/1 187/30/1 188/39/1
f 189/27/1 190/28/1 191/29/1 192/30/1
f 193/10/1 194/4/1 195/31/1 196/32/1
f 197/27/1 198/28/1 199/29/1 200/30/1
f 201/10/1 202/4/1 203/31/1 204/32/1
f 205/27/1 206/28/1 207/29/1 208/30/1
f 209/10/1 210/4/1 211/31/1 212/32/1
f 213/27/1 214/28/1 215/29/1 216/30/1
f 217/10/1 218/4/1 219/31/1 220/32/1
f 221/27/1 222/28/1 223/29/1 224/30/1
f 225/10/1 226/4/1 227/31/1 228/32/1

