# Tiled2Unity generated file. Do not modify by hand.
# Wavefront file for 'SmallShed_mesh_0004.obj'

# Vertices (Count = 72)
v -112 -48 0
v -128 -48 0
v -128 -32 0
v -112 -32 0
v -96 -48 0
v -112 -48 0
v -112 -32 0
v -96 -32 0
v -80 -48 0
v -96 -48 0
v -96 -32 0
v -80 -32 0
v -64 -48 0
v -80 -48 0
v -80 -32 0
v -64 -32 0
v -48 -48 0
v -64 -48 0
v -64 -32 0
v -48 -32 0
v -32 -48 0
v -48 -48 0
v -48 -32 0
v -32 -32 0
v -112 -64 0
v -128 -64 0
v -128 -48 0
v -112 -48 0
v -32 -64 0
v -48 -64 0
v -48 -48 0
v -32 -48 0
v -112 -80 0
v -128 -80 0
v -128 -64 0
v -112 -64 0
v -32 -80 0
v -48 -80 0
v -48 -64 0
v -32 -64 0
v -112 -96 0
v -128 -96 0
v -128 -80 0
v -112 -80 0
v -32 -96 0
v -48 -96 0
v -48 -80 0
v -32 -80 0
v -112 -112 0
v -128 -112 0
v -128 -96 0
v -112 -96 0
v -32 -112 0
v -48 -112 0
v -48 -96 0
v -32 -96 0
v -112 -128 0
v -128 -128 0
v -128 -112 0
v -112 -112 0
v -96 -128 0
v -112 -128 0
v -112 -112 0
v -96 -112 0
v -48 -128 0
v -64 -128 0
v -64 -112 0
v -48 -112 0
v -32 -128 0
v -48 -128 0
v -48 -112 0
v -32 -112 0

# Texture cooridinates (Count = 16)
vt 0.45 0.8627451
vt 0.5 0.8627451
vt 0.5 0.8823529
vt 0.45 0.8823529
vt 0.4 0.8627451
vt 0.4 0.8823529
vt 0.35 0.8627451
vt 0.35 0.8823529
vt 0.35 0.8431373
vt 0.4 0.8431373
vt 0.45 0.8235294
vt 0.5 0.8235294
vt 0.5 0.8431373
vt 0.45 0.8431373
vt 0.35 0.8235294
vt 0.4 0.8235294

# Normal
vn 0 0 -1

# Mesh description
g SmallShed_mesh_0004

# Faces
f 1/1/1 2/2/1 3/3/1 4/4/1
f 5/5/1 6/1/1 7/4/1 8/6/1
f 9/5/1 10/1/1 11/4/1 12/6/1
f 13/5/1 14/1/1 15/4/1 16/6/1
f 17/5/1 18/1/1 19/4/1 20/6/1
f 21/7/1 22/5/1 23/6/1 24/8/1
f 25/9/1 26/10/1 27/5/1 28/7/1
f 29/9/1 30/10/1 31/5/1 32/7/1
f 33/9/1 34/10/1 35/5/1 36/7/1
f 37/9/1 38/10/1 39/5/1 40/7/1
f 41/9/1 42/10/1 43/5/1 44/7/1
f 45/9/1 46/10/1 47/5/1 48/7/1
f 49/9/1 50/10/1 51/5/1 52/7/1
f 53/9/1 54/10/1 55/5/1 56/7/1
f 57/11/1 58/12/1 59/13/1 60/14/1
f 61/5/1 62/1/1 63/4/1 64/6/1
f 65/5/1 66/1/1 67/4/1 68/6/1
f 69/15/1 70/16/1 71/10/1 72/9/1

