# Tiled2Unity generated file. Do not modify by hand.
# Wavefront file for 'Forrest_mesh_0002.obj'

# Vertices (Count = 276)
v 0 -16 0
v -16 -16 0
v -16 0 0
v 0 0 0
v 0 -32 0
v -16 -32 0
v -16 -16 0
v 0 -16 0
v 0 -48 0
v -16 -48 0
v -16 -32 0
v 0 -32 0
v 0 -64 0
v -16 -64 0
v -16 -48 0
v 0 -48 0
v 0 -80 0
v -16 -80 0
v -16 -64 0
v 0 -64 0
v 0 -96 0
v -16 -96 0
v -16 -80 0
v 0 -80 0
v 0 -112 0
v -16 -112 0
v -16 -96 0
v 0 -96 0
v -144 -128 0
v -160 -128 0
v -160 -112 0
v -144 -112 0
v -128 -128 0
v -144 -128 0
v -144 -112 0
v -128 -112 0
v -112 -128 0
v -128 -128 0
v -128 -112 0
v -112 -112 0
v -96 -128 0
v -112 -128 0
v -112 -112 0
v -96 -112 0
v -80 -128 0
v -96 -128 0
v -96 -112 0
v -80 -112 0
v -64 -128 0
v -80 -128 0
v -80 -112 0
v -64 -112 0
v -48 -128 0
v -64 -128 0
v -64 -112 0
v -48 -112 0
v -32 -128 0
v -48 -128 0
v -48 -112 0
v -32 -112 0
v -16 -128 0
v -32 -128 0
v -32 -112 0
v -16 -112 0
v 0 -128 0
v -16 -128 0
v -16 -112 0
v 0 -112 0
v -144 -144 0
v -160 -144 0
v -160 -128 0
v -144 -128 0
v 0 -144 0
v -16 -144 0
v -16 -128 0
v 0 -128 0
v -144 -160 0
v -160 -160 0
v -160 -144 0
v -144 -144 0
v -16 -160 0
v -32 -160 0
v -32 -144 0
v -16 -144 0
v 0 -160 0
v -16 -160 0
v -16 -144 0
v 0 -144 0
v -144 -176 0
v -160 -176 0
v -160 -160 0
v -144 -160 0
v -16 -176 0
v -32 -176 0
v -32 -160 0
v -16 -160 0
v 0 -176 0
v -16 -176 0
v -16 -160 0
v 0 -160 0
v -144 -192 0
v -160 -192 0
v -160 -176 0
v -144 -176 0
v -16 -192 0
v -32 -192 0
v -32 -176 0
v -16 -176 0
v 0 -192 0
v -16 -192 0
v -16 -176 0
v 0 -176 0
v -144 -208 0
v -160 -208 0
v -160 -192 0
v -144 -192 0
v -16 -208 0
v -32 -208 0
v -32 -192 0
v -16 -192 0
v 0 -208 0
v -16 -208 0
v -16 -192 0
v 0 -192 0
v -144 -224 0
v -160 -224 0
v -160 -208 0
v -144 -208 0
v -128 -224 0
v -144 -224 0
v -144 -208 0
v -128 -208 0
v -112 -224 0
v -128 -224 0
v -128 -208 0
v -112 -208 0
v -64 -224 0
v -80 -224 0
v -80 -208 0
v -64 -208 0
v -32 -224 0
v -48 -224 0
v -48 -208 0
v -32 -208 0
v -16 -224 0
v -32 -224 0
v -32 -208 0
v -16 -208 0
v 0 -224 0
v -16 -224 0
v -16 -208 0
v 0 -208 0
v 0 -240 0
v -16 -240 0
v -16 -224 0
v 0 -224 0
v 0 -256 0
v -16 -256 0
v -16 -240 0
v 0 -240 0
v 0 -272 0
v -16 -272 0
v -16 -256 0
v 0 -256 0
v 0 -288 0
v -16 -288 0
v -16 -272 0
v 0 -272 0
v 0 -304 0
v -16 -304 0
v -16 -288 0
v 0 -288 0
v 0 -384 0
v -16 -384 0
v -16 -368 0
v 0 -368 0
v 0 -400 0
v -16 -400 0
v -16 -384 0
v 0 -384 0
v 0 -416 0
v -16 -416 0
v -16 -400 0
v 0 -400 0
v 0 -432 0
v -16 -432 0
v -16 -416 0
v 0 -416 0
v 0 -448 0
v -16 -448 0
v -16 -432 0
v 0 -432 0
v 0 -464 0
v -16 -464 0
v -16 -448 0
v 0 -448 0
v 0 -480 0
v -16 -480 0
v -16 -464 0
v 0 -464 0
v 0 -496 0
v -16 -496 0
v -16 -480 0
v 0 -480 0
v 0 -512 0
v -16 -512 0
v -16 -496 0
v 0 -496 0
v 0 -528 0
v -16 -528 0
v -16 -512 0
v 0 -512 0
v 0 -544 0
v -16 -544 0
v -16 -528 0
v 0 -528 0
v 0 -560 0
v -16 -560 0
v -16 -544 0
v 0 -544 0
v 0 -576 0
v -16 -576 0
v -16 -560 0
v 0 -560 0
v 0 -592 0
v -16 -592 0
v -16 -576 0
v 0 -576 0
v 0 -608 0
v -16 -608 0
v -16 -592 0
v 0 -592 0
v 0 -624 0
v -16 -624 0
v -16 -608 0
v 0 -608 0
v 0 -640 0
v -16 -640 0
v -16 -624 0
v 0 -624 0
v 0 -656 0
v -16 -656 0
v -16 -640 0
v 0 -640 0
v 0 -672 0
v -16 -672 0
v -16 -656 0
v 0 -656 0
v 0 -688 0
v -16 -688 0
v -16 -672 0
v 0 -672 0
v 0 -704 0
v -16 -704 0
v -16 -688 0
v 0 -688 0
v 0 -720 0
v -16 -720 0
v -16 -704 0
v 0 -704 0
v 0 -736 0
v -16 -736 0
v -16 -720 0
v 0 -720 0
v 0 -752 0
v -16 -752 0
v -16 -736 0
v 0 -736 0
v 0 -768 0
v -16 -768 0
v -16 -752 0
v 0 -752 0
v 0 -784 0
v -16 -784 0
v -16 -768 0
v 0 -768 0

# Texture cooridinates (Count = 28)
vt 0.1 0.9215686
vt 0.15 0.9215686
vt 0.15 0.9411765
vt 0.1 0.9411765
vt 0 0.9019608
vt 0.05 0.9019608
vt 0.05 0.9215686
vt 0 0.9215686
vt 0.45 0.745098
vt 0.5 0.745098
vt 0.5 0.7647059
vt 0.45 0.7647059
vt 0.4 0.745098
vt 0.4 0.7647059
vt 0.35 0.745098
vt 0.35 0.7647059
vt 0.35 0.7254902
vt 0.4 0.7254902
vt 0.45 0.7058823
vt 0.5 0.7058823
vt 0.5 0.7254902
vt 0.45 0.7254902
vt 0.35 0.7058823
vt 0.4 0.7058823
vt 0.1 0.9019608
vt 0.1 0.8823529
vt 0.15 0.8823529
vt 0.15 0.9019608

# Normal
vn 0 0 -1

# Mesh description
g Forrest_mesh_0002

# Faces
f 1/1/1 2/2/1 3/3/1 4/4/1
f 5/5/1 6/6/1 7/7/1 8/8/1
f 9/5/1 10/6/1 11/7/1 12/8/1
f 13/5/1 14/6/1 15/7/1 16/8/1
f 17/5/1 18/6/1 19/7/1 20/8/1
f 21/5/1 22/6/1 23/7/1 24/8/1
f 25/5/1 26/6/1 27/7/1 28/8/1
f 29/9/1 30/10/1 31/11/1 32/12/1
f 33/13/1 34/9/1 35/12/1 36/14/1
f 37/13/1 38/9/1 39/12/1 40/14/1
f 41/13/1 42/9/1 43/12/1 44/14/1
f 45/13/1 46/9/1 47/12/1 48/14/1
f 49/13/1 50/9/1 51/12/1 52/14/1
f 53/13/1 54/9/1 55/12/1 56/14/1
f 57/13/1 58/9/1 59/12/1 60/14/1
f 61/15/1 62/13/1 63/14/1 64/16/1
f 65/5/1 66/6/1 67/7/1 68/8/1
f 69/17/1 70/18/1 71/13/1 72/15/1
f 73/5/1 74/6/1 75/7/1 76/8/1
f 77/17/1 78/18/1 79/13/1 80/15/1
f 81/17/1 82/18/1 83/13/1 84/15/1
f 85/5/1 86/6/1 87/7/1 88/8/1
f 89/17/1 90/18/1 91/13/1 92/15/1
f 93/17/1 94/18/1 95/13/1 96/15/1
f 97/5/1 98/6/1 99/7/1 100/8/1
f 101/17/1 102/18/1 103/13/1 104/15/1
f 105/17/1 106/18/1 107/13/1 108/15/1
f 109/5/1 110/6/1 111/7/1 112/8/1
f 113/17/1 114/18/1 115/13/1 116/15/1
f 117/17/1 118/18/1 119/13/1 120/15/1
f 121/5/1 122/6/1 123/7/1 124/8/1
f 125/19/1 126/20/1 127/21/1 128/22/1
f 129/13/1 130/9/1 131/12/1 132/14/1
f 133/13/1 134/9/1 135/12/1 136/14/1
f 137/13/1 138/9/1 139/12/1 140/14/1
f 141/13/1 142/9/1 143/12/1 144/14/1
f 145/23/1 146/24/1 147/18/1 148/17/1
f 149/5/1 150/6/1 151/7/1 152/8/1
f 153/5/1 154/6/1 155/7/1 156/8/1
f 157/5/1 158/6/1 159/7/1 160/8/1
f 161/5/1 162/6/1 163/7/1 164/8/1
f 165/5/1 166/6/1 167/7/1 168/8/1
f 169/6/1 170/25/1 171/1/1 172/7/1
f 173/5/1 174/6/1 175/7/1 176/8/1
f 177/5/1 178/6/1 179/7/1 180/8/1
f 181/5/1 182/6/1 183/7/1 184/8/1
f 185/5/1 186/6/1 187/7/1 188/8/1
f 189/5/1 190/6/1 191/7/1 192/8/1
f 193/5/1 194/6/1 195/7/1 196/8/1
f 197/5/1 198/6/1 199/7/1 200/8/1
f 201/5/1 202/6/1 203/7/1 204/8/1
f 205/5/1 206/6/1 207/7/1 208/8/1
f 209/5/1 210/6/1 211/7/1 212/8/1
f 213/5/1 214/6/1 215/7/1 216/8/1
f 217/5/1 218/6/1 219/7/1 220/8/1
f 221/5/1 222/6/1 223/7/1 224/8/1
f 225/5/1 226/6/1 227/7/1 228/8/1
f 229/5/1 230/6/1 231/7/1 232/8/1
f 233/5/1 234/6/1 235/7/1 236/8/1
f 237/5/1 238/6/1 239/7/1 240/8/1
f 241/5/1 242/6/1 243/7/1 244/8/1
f 245/5/1 246/6/1 247/7/1 248/8/1
f 249/5/1 250/6/1 251/7/1 252/8/1
f 253/5/1 254/6/1 255/7/1 256/8/1
f 257/5/1 258/6/1 259/7/1 260/8/1
f 261/5/1 262/6/1 263/7/1 264/8/1
f 265/5/1 266/6/1 267/7/1 268/8/1
f 269/5/1 270/6/1 271/7/1 272/8/1
f 273/26/1 274/27/1 275/28/1 276/25/1

