# Tiled2Unity generated file. Do not modify by hand.
# Wavefront file for 'StartRoom_mesh_0003.obj'

# Vertices (Count = 16)
v -112 -48 0
v -128 -48 0
v -128 -32 0
v -112 -32 0
v -96 -48 0
v -112 -48 0
v -112 -32 0
v -96 -32 0
v -80 -48 0
v -96 -48 0
v -96 -32 0
v -80 -32 0
v -32 -80 0
v -48 -80 0
v -48 -64 0
v -32 -64 0

# Texture cooridinates (Count = 8)
vt 0.625 0.7727273
vt 0.75 0.7727273
vt 0.75 0.8181818
vt 0.625 0.8181818
vt 0 0.5454545
vt 0.125 0.5454545
vt 0.125 0.5909091
vt 0 0.5909091

# Normal
vn 0 0 -1

# Mesh description
g StartRoom_mesh_0003

# Faces
f 1/1/1 2/2/1 3/3/1 4/4/1
f 5/1/1 6/2/1 7/3/1 8/4/1
f 9/1/1 10/2/1 11/3/1 12/4/1
f 13/5/1 14/6/1 15/7/1 16/8/1

