# Tiled2Unity generated file. Do not modify by hand.
# Wavefront file for 'StartRoom_mesh_0002.obj'

# Vertices (Count = 112)
v -128 -32 0
v -144 -32 0
v -144 -16 0
v -128 -16 0
v -112 -32 0
v -128 -32 0
v -128 -16 0
v -112 -16 0
v -96 -32 0
v -112 -32 0
v -112 -16 0
v -96 -16 0
v -80 -32 0
v -96 -32 0
v -96 -16 0
v -80 -16 0
v -64 -32 0
v -80 -32 0
v -80 -16 0
v -64 -16 0
v -48 -32 0
v -64 -32 0
v -64 -16 0
v -48 -16 0
v -32 -32 0
v -48 -32 0
v -48 -16 0
v -32 -16 0
v -16 -32 0
v -32 -32 0
v -32 -16 0
v -16 -16 0
v -128 -48 0
v -144 -48 0
v -144 -32 0
v -128 -32 0
v -16 -48 0
v -32 -48 0
v -32 -32 0
v -16 -32 0
v -128 -64 0
v -144 -64 0
v -144 -48 0
v -128 -48 0
v -16 -64 0
v -32 -64 0
v -32 -48 0
v -16 -48 0
v -128 -80 0
v -144 -80 0
v -144 -64 0
v -128 -64 0
v -16 -80 0
v -32 -80 0
v -32 -64 0
v -16 -64 0
v -128 -96 0
v -144 -96 0
v -144 -80 0
v -128 -80 0
v -16 -96 0
v -32 -96 0
v -32 -80 0
v -16 -80 0
v -128 -112 0
v -144 -112 0
v -144 -96 0
v -128 -96 0
v -16 -112 0
v -32 -112 0
v -32 -96 0
v -16 -96 0
v -128 -128 0
v -144 -128 0
v -144 -112 0
v -128 -112 0
v -16 -128 0
v -32 -128 0
v -32 -112 0
v -16 -112 0
v -128 -144 0
v -144 -144 0
v -144 -128 0
v -128 -128 0
v -112 -144 0
v -128 -144 0
v -128 -128 0
v -112 -128 0
v -96 -144 0
v -112 -144 0
v -112 -128 0
v -96 -128 0
v -80 -144 0
v -96 -144 0
v -96 -128 0
v -80 -128 0
v -64 -144 0
v -80 -144 0
v -80 -128 0
v -64 -128 0
v -48 -144 0
v -64 -144 0
v -64 -128 0
v -48 -128 0
v -32 -144 0
v -48 -144 0
v -48 -128 0
v -32 -128 0
v -16 -144 0
v -32 -144 0
v -32 -128 0
v -16 -128 0

# Texture cooridinates (Count = 16)
vt 0.45 0.8627451
vt 0.5 0.8627451
vt 0.5 0.8823529
vt 0.45 0.8823529
vt 0.4 0.8627451
vt 0.4 0.8823529
vt 0.35 0.8627451
vt 0.35 0.8823529
vt 0.35 0.8431373
vt 0.4 0.8431373
vt 0.45 0.8235294
vt 0.5 0.8235294
vt 0.5 0.8431373
vt 0.45 0.8431373
vt 0.35 0.8235294
vt 0.4 0.8235294

# Normal
vn 0 0 -1

# Mesh description
g StartRoom_mesh_0002

# Faces
f 1/1/1 2/2/1 3/3/1 4/4/1
f 5/5/1 6/1/1 7/4/1 8/6/1
f 9/5/1 10/1/1 11/4/1 12/6/1
f 13/5/1 14/1/1 15/4/1 16/6/1
f 17/5/1 18/1/1 19/4/1 20/6/1
f 21/5/1 22/1/1 23/4/1 24/6/1
f 25/5/1 26/1/1 27/4/1 28/6/1
f 29/7/1 30/5/1 31/6/1 32/8/1
f 33/9/1 34/10/1 35/5/1 36/7/1
f 37/9/1 38/10/1 39/5/1 40/7/1
f 41/9/1 42/10/1 43/5/1 44/7/1
f 45/9/1 46/10/1 47/5/1 48/7/1
f 49/9/1 50/10/1 51/5/1 52/7/1
f 53/9/1 54/10/1 55/5/1 56/7/1
f 57/9/1 58/10/1 59/5/1 60/7/1
f 61/9/1 62/10/1 63/5/1 64/7/1
f 65/9/1 66/10/1 67/5/1 68/7/1
f 69/9/1 70/10/1 71/5/1 72/7/1
f 73/9/1 74/10/1 75/5/1 76/7/1
f 77/9/1 78/10/1 79/5/1 80/7/1
f 81/11/1 82/12/1 83/13/1 84/14/1
f 85/5/1 86/1/1 87/4/1 88/6/1
f 89/5/1 90/1/1 91/4/1 92/6/1
f 93/5/1 94/1/1 95/4/1 96/6/1
f 97/5/1 98/1/1 99/4/1 100/6/1
f 101/5/1 102/1/1 103/4/1 104/6/1
f 105/5/1 106/1/1 107/4/1 108/6/1
f 109/15/1 110/16/1 111/10/1 112/9/1

